<?xml version="1.0" encoding="UTF-8" standalone="no"?>
<!-- Generator: Adobe Illustrator 16.0.0, SVG Export Plug-In . SVG Version: 6.00 Build 0)  -->

<svg
   xmlns:dc="http://purl.org/dc/elements/1.1/"
   xmlns:cc="http://creativecommons.org/ns#"
   xmlns:rdf="http://www.w3.org/1999/02/22-rdf-syntax-ns#"
   xmlns:svg="http://www.w3.org/2000/svg"
   xmlns="http://www.w3.org/2000/svg"
   xmlns:sodipodi="http://sodipodi.sourceforge.net/DTD/sodipodi-0.dtd"
   xmlns:inkscape="http://www.inkscape.org/namespaces/inkscape"
   version="1.1"
   id="svg602"
   sodipodi:version="0.32"
   sodipodi:docname="pantries.svg"
   inkscape:version="0.48.4 r9939"
   x="0px"
   y="0px"
   width="579.997px"
   height="579.997px"
   viewBox="0 0 579.997 579.997"
   enable-background="new 0 0 579.997 579.997"
   xml:space="preserve"><metadata
   id="metadata9"><rdf:RDF><cc:Work
       rdf:about=""><dc:format>image/svg+xml</dc:format><dc:type
         rdf:resource="http://purl.org/dc/dcmitype/StillImage" /></cc:Work></rdf:RDF></metadata><defs
   id="defs7" /><sodipodi:namedview
   pagecolor="#ffffff"
   bordercolor="#666666"
   borderopacity="1"
   objecttolerance="10"
   gridtolerance="10"
   guidetolerance="10"
   inkscape:pageopacity="0"
   inkscape:pageshadow="2"
   inkscape:window-width="678"
   inkscape:window-height="480"
   id="namedview5"
   showgrid="false"
   inkscape:zoom="0.40689865"
   inkscape:cx="289.9985"
   inkscape:cy="289.9985"
   inkscape:window-x="419"
   inkscape:window-y="230"
   inkscape:window-maximized="0"
   inkscape:current-layer="svg602" />
<path
   fill="param(fill) #000"
   stroke="param(outline) #FFF"
   stroke-width="param(outline-width) 0"
   d="M517.815,486.516V93.48H62.181v393.036 M255.924,486.516V384.108  h63.414v102.408 M187.524,445.236h-63.411v-64.173h63.411V445.236z M187.524,331.237h-63.411v-64.174h63.411V331.237z   M187.524,217.241h-63.411v-64.174h63.411V217.241z M317.65,331.237h-63.411v-64.174h63.411V331.237z M317.65,217.241h-63.411  v-64.174h63.411V217.241z M447.675,445.236h-63.41v-64.173h63.41V445.236z M447.781,331.237h-63.416v-64.174h63.416V331.237z   M447.781,217.241h-63.416v-64.174h63.416V217.241z"
   id="path3"
   style="fill:#e69100;fill-opacity:0.72514617" />
</svg>